<?xml version="1.0" encoding="utf-8"?>
<!-- Generator: Adobe Illustrator 27.6.1, SVG Export Plug-In . SVG Version: 6.00 Build 0)  -->
<svg version="1.1" id="Layer_1" xmlns="http://www.w3.org/2000/svg" xmlns:xlink="http://www.w3.org/1999/xlink" x="0px" y="0px"
	 viewBox="0 0 180 56.58" style="enable-background:new 0 0 180 56.58;" xml:space="preserve">
<style type="text/css">
	.st0{fill-rule:evenodd;clip-rule:evenodd;}
	.st1{fill-rule:evenodd;clip-rule:evenodd;fill:#8A8A8B;}
	.st2{fill-rule:evenodd;clip-rule:evenodd;fill:#EC2027;}
	.st3{fill-rule:evenodd;clip-rule:evenodd;fill:#FFFFFF;}
</style>
<g>
	<path class="st0" d="M168.7,44.34l8.54-23.54c0,0-6.38,0-12.76,1.28l-8.07,22.26H168.7L168.7,44.34z M167.24,14.44l-1.64,4.52
		c6.42-1.28,12.76-1.28,12.76-1.28l1.64-4.52C180,13.16,173.62,13.16,167.24,14.44L167.24,14.44z"/>
	<path class="st0" d="M122.74,38.75c3.84,0.7,7.8,1.07,11.83,1.07c2.66,0,7.09-0.31,7.48-3.74c0.16-1.34-1.3-2.26-3.62-3.54
		c-2.66-1.47-4.7-2.24-7.01-3.79c-2.31-1.54-3.3-3.97-2.52-6.55c2.33-7.72,13.6-9.04,20.27-9.04c4.58,0,9.06,0.44,13.4,1.28
		l-1.56,4.3c-4.01-0.73-18.64-3.21-19.32,2.68c-0.15,1.34,1.2,2.21,3.53,3.49c2.65,1.46,4.79,2.29,7.1,3.83
		c2.31,1.55,3.3,3.97,2.53,6.55c-2.34,7.71-13.6,9.04-20.27,9.04c-4.49,0-8.98-0.43-13.39-1.28L122.74,38.75L122.74,38.75z"/>
	<path class="st0" d="M104.2,44.34l7.12-19.64c2.8-7.72-10.47-4.64-13.63,4.05l-5.65,15.59h0H79.75l7.12-19.64
		c2.8-7.72-10.48-4.64-13.63,4.05l-5.65,15.59h-12.3l11.3-31.18c3.92,0,6.03,0.9,7.81,2.65c0.65,0.64,1.06,1.47,1.28,2.35
		c2.31-1.4,4.35-2.44,5.72-2.98c2.56-1,5.73-2.03,9.65-2.03c3.91,0,6.03,0.9,7.81,2.65c0.65,0.64,1.06,1.47,1.28,2.35
		c2.31-1.4,4.35-2.44,5.72-2.98c2.56-1,5.73-2.03,9.65-2.03c3.92,0,6.03,0.9,7.81,2.65c1.78,1.74,1.74,4.93,1.09,6.7l-7.91,21.83
		H104.2L104.2,44.34z"/>
	<path class="st1" d="M0.7,9.52C7.58,5.23,16,1.36,24.04,0.04L24.28,0l0.23,0.04c8.04,1.32,16.46,5.19,23.33,9.49l0.7,0.44l0,0.82
		c0.06,10.4-1.62,21.49-6.39,30.83C38.42,48.93,32.68,55.26,24.76,58l-0.48,0.17L23.79,58c-7.92-2.74-13.66-9.07-17.39-16.38
		C1.63,32.27-0.06,21.18,0,10.78l0-0.82L0.7,9.52L0.7,9.52z"/>
	<path class="st2" d="M1.5,10.79c7.2-4.5,15.45-8.07,22.78-9.28v0l0,0l0,0v0c7.33,1.2,15.58,4.78,22.78,9.28
		c0.13,24.05-9.15,41.07-22.78,45.79v0l0,0l0,0v0C10.65,51.86,1.36,34.84,1.5,10.79L1.5,10.79z"/>
	<path class="st0" d="M30.93,20.12c-3,3.47-7.76,3.97-11.06,4.11c-0.37,0.04-1.12,0.08-1.31,0.35c-0.11,0.17-0.01,0.41,0.15,0.54
		c3.72,2.63,8.57,0.71,11.12-0.55c-2.94,2.64-7.91,3.11-12.14,1.56c-0.54-0.18-0.89-0.24-1.06-0.05c-0.12,0.13-0.18,0.38-0.02,0.67
		c1.19,2.22,2.05,3.93,5.07,4.89c-3.51-0.21-5.71-3.54-6.23-5.33c-0.05,2.99,2.55,5.04,3.62,6.23c-1.4,0.05-2.76,0.16-3.36,1.21
		c-0.42,0.66-0.41,1.62-0.99,2.49c-1.62-3.04-2.92-7.28-1.7-10.99c0.92-2.8,2.54-5.42,6.36-7.06c-1.01,1.16-1.78,2.05-2.62,3.33
		c-0.65,1.22,0.15,1.65,1.05,0.09c1.26,3.04,10.3,1.22,12.68-1.68l0.86-0.36L30.93,20.12L30.93,20.12z M25.21,46.45
		c0.09-0.15,0.33-0.24,0.54-0.17c0.39,0.13,0.55,0.56,0.32,0.84c-0.28,0.38-0.74,0.65-1.04,1.02c-0.14,0.16-0.2,0.35-0.28,0.53h0
		C24.65,47.92,24.65,47.1,25.21,46.45L25.21,46.45z M20.98,45.13c0.21-0.17,0.62-0.18,0.81,0.01c0.19,0.24,0.26,0.56,0.14,0.83
		c-0.2,0.25-0.53,0.42-0.81,0.61c-0.45,0.29-0.92,0.62-1.11,1.07c0-0.55,0.09-1.11,0.32-1.64C20.48,45.69,20.67,45.37,20.98,45.13
		L20.98,45.13z M31.03,44.61c0.14-0.07,0.31-0.03,0.43,0.05c0.16,0.1,0.22,0.25,0.25,0.4c0.07,0.36,0.07,0.73,0.21,1.07
		c0.06,0.15,0.15,0.28,0.22,0.42c-0.35-0.12-0.62-0.34-0.85-0.57c-0.25-0.26-0.47-0.54-0.53-0.86
		C30.73,44.93,30.81,44.72,31.03,44.61L31.03,44.61z M17.87,42.6c0.23-0.11,0.53-0.01,0.68,0.15c0.19,0.19,0.11,0.45,0.09,0.67
		c-0.01,0.15-0.15,0.27-0.31,0.35c-0.43,0.2-0.92,0.39-1.35,0.6c-0.29,0.14-0.52,0.34-0.69,0.57c0.05-0.39,0.21-0.76,0.39-1.12
		C16.92,43.35,17.31,42.87,17.87,42.6L17.87,42.6z M35.74,39.63c-0.04-0.19,0.14-0.34,0.33-0.43c0.36-0.01,0.64,0.19,0.94,0.32
		c0.17,0.08,0.37,0.1,0.56,0.12c-0.34,0.22-0.77,0.36-1.21,0.36C36.09,40,35.78,39.86,35.74,39.63L35.74,39.63z M15.26,38.03
		c0.12-0.07,0.28-0.02,0.4,0.01c0.31,0.09,0.48,0.35,0.46,0.6c-0.02,0.27,0.02,0.6-0.3,0.77c-0.57,0.33-1.28,0.52-1.8,0.92
		c-0.19,0.13-0.33,0.29-0.45,0.46c0.08-0.75,0.39-1.49,0.89-2.13C14.65,38.39,14.96,38.2,15.26,38.03L15.26,38.03z M22.67,35.12
		c0.41-0.16,0.87-0.25,1.33-0.28c-0.38,0.13-0.81,0.27-1.02,0.57c-0.09,0.13-0.17,0.31-0.02,0.43c0.17,0.09,0.39,0.06,0.57,0.13
		c0.17,0.11,0.11,0.31,0.09,0.45c-0.13,0.48-0.37,0.93-0.67,1.36c-0.06,0.1-0.13,0.21-0.11,0.32c0.14,0.02,0.23-0.09,0.33-0.14
		c0.4-0.28,0.82-0.55,1.12-0.9c0.13-0.16,0.33-0.31,0.35-0.51c0.03-0.16-0.26-0.21-0.28-0.36c0.12-0.24,0.44-0.39,0.72-0.51
		c0.64-0.25,1.57-0.19,1.97,0.32c-0.32-0.09-0.62-0.24-0.97-0.26c-0.18-0.01-0.38,0.07-0.41,0.21c-0.04,0.19-0.02,0.38-0.06,0.56
		c-0.12,0.66-0.65,1.26-1.36,1.63c-0.24,0.12-0.55,0.18-0.73,0.36c-0.13,0.13-0.24,0.28-0.23,0.45c0.15,0.07,0.34,0.05,0.51,0.07
		c0.38,0.04,0.79,0.06,1.14-0.08c0.34-0.13,0.47-0.45,0.81-0.56c0.89-0.33,2.03,0.07,2.42,0.75c-0.28-0.13-0.51-0.32-0.81-0.43
		c-0.3-0.11-0.68-0.06-0.93,0.12c-0.27,0.19-0.44,0.44-0.6,0.69c-0.06,0.09-0.12,0.19-0.26,0.21c-0.23-0.01-0.45-0.15-0.69-0.09
		c-0.33,0.09-0.63,0.25-0.96,0.33c-0.23,0.05-0.47,0.05-0.7,0c-0.4-0.08-0.81-0.18-1.23-0.2c-0.19,0-0.42,0.02-0.53,0.15
		c-0.16,0.19-0.14,0.42-0.17,0.64c-0.13-0.53-0.33-1.06-0.36-1.6c-0.04-0.68-0.21-1.35-0.07-2.03c0.23,0.27,0.24,0.6,0.3,0.92
		c0.02,0.14,0.11,0.33,0.32,0.35c0.29,0,0.45-0.22,0.6-0.38c0.24-0.33,0.46-0.71,0.41-1.1c0.01-0.18-0.28-0.18-0.38-0.31
		c-0.19-0.21-0.19-0.49-0.1-0.72C22.11,35.43,22.37,35.24,22.67,35.12L22.67,35.12z M38.11,34.24c0.01-0.14,0.21-0.18,0.36-0.17
		c0.28,0,0.55,0.02,0.83-0.01c-0.2,0.22-0.48,0.41-0.82,0.47C38.26,34.57,38.06,34.41,38.11,34.24L38.11,34.24z M38.32,30.81
		c0.21-0.08,0.42-0.16,0.6-0.27c-0.07,0.23-0.22,0.47-0.5,0.59C38.19,31.17,38.12,30.86,38.32,30.81L38.32,30.81z M28.4,27.26
		c0.28,1.05,0.66,2.03,1.89,2.42c1.15,0.36,2.82,0.11,4.08-0.01c1.05-0.04,2.02-0.23,2.8,0.31c0.39,0.27,0.55,0.6,0.74,0.97
		c0.18,0.37,0.36,0.73,0.49,1.11c0.12,0.33,0.05,0.75-0.14,1.05c-0.3,0.47-0.49,0.86-0.54,1.38c-0.05,0.47-0.15,0.94-0.24,1.41
		c-0.09,0.45-0.21,0.99-0.44,1.41c-0.23,0.41-0.64,0.72-0.91,1.11c-0.46,0.64-0.71,1.33-0.95,2.03c-0.19,0.55-0.26,1.11-0.42,1.67
		c-0.12,0.47-0.41,0.93-0.93,1.21c-0.77,0.41-1.73,0.51-2.55,0.83c-0.76,0.3-1.27,0.78-1.87,1.23c-0.47,0.36-0.88,0.77-1.56,0.87
		c-1.26,0.19-1.58-0.81-3.86-0.01c-0.27,0.1-0.62,0.12-0.86-0.04c-0.54-0.26-0.6-1.01-1.21-1.33c-0.61-0.29-1.34-0.3-2.02-0.43
		c-0.3-0.05-0.59-0.23-0.71-0.46c-0.19-0.4-0.2-0.83-0.37-1.23c-0.44-0.9-1.89-1.19-2.3-2.01c-0.42-0.86,0.15-1.31,0.15-2.01
		c-0.04-0.92-0.67-1.39-1.89-1.43c0.68-0.99,0.92-1.78,1.16-2.84c0.16-0.37,0.25-0.79,0.65-1.04c0.35-0.22,0.91-0.34,1.33-0.44
		c0.45-0.11,1.12-0.12,1.55,0.07c1.16,0.64,0.89,2.31,0.28,2.99c-0.83,0.94-2.92,0.75-2.56-0.72c0.43,0.36,0.85,0.92,1.45,0.26
		c0.04-0.06,0.09-0.15,0.07-0.23c-0.09-0.28-0.26-0.46-0.59-0.6c-0.16-0.07-0.36-0.11-0.54-0.05c-0.6,0.18-1,0.55-1.23,1.01
		c-0.47,0.92,0.55,1.66,1.72,1.48c1.09-0.22,1.59-0.66,2.3-1.24c-0.02,1.18-0.06,2.03,0.1,3.27c0.18,0.9,0.36,1.79,0.83,2.63
		c0.38,0.69,1.01,1.33,1.87,1.66c0.91,0.37,1.91,0.37,2.9,0.37c1.7,0.01,4.19-0.73,5.56-1.44c2.19-1.16,2.51-2.09,3.58-3.9
		c0.47-0.85,0.92-1.9,1.25-2.8c0.34-0.93,0.6-1.88,0.59-2.85c-0.01-0.8-0.22-1.28-0.53-1.66c-0.96-1.21-3.01-0.7-4.9-0.75
		c-0.15,0.3-0.26,0.63-0.01,0.92c0.46,0.5,1.59,0.42,2.34,0.48c-3.23,1.32-6.13-0.12-6.93-2.66c0.67,0.84,1.76,2.56,3.41,2.05
		c0.6-0.18,0.33-0.61,0.13-0.93c-0.05-0.11-0.26-0.12-0.38-0.16C28.69,29.78,28.15,28.48,28.4,27.26L28.4,27.26z M18.02,26.71
		c0.24,0.19,0.32,0.45,0.57,0.64c2.29,1.74,4.31,1.73,7.22,1.83c-2.59,0.63-5.88,0.24-7.72-1.5c-0.26-0.24-0.44-0.46-0.59-0.75
		C17.37,26.53,17.73,26.48,18.02,26.71L18.02,26.71z M28.84,26.23c2.34-0.13,4.73,0.76,5.48,3.03c-0.31-0.34-1.58-0.64-2.06-0.52
		c-0.13,0.03-0.25,0.1-0.28,0.21c-0.05,0.2,0.07,0.36,0.15,0.55c-1.28,0.15-2.21-0.28-2.79-1.1c0.29,0.12,0.57,0.31,0.9,0.37
		c0.63,0.12,1.26-0.15,1.62-0.54c0.23-0.25,0.08-0.56-0.19-0.76C30.71,26.73,29.88,26.65,28.84,26.23L28.84,26.23z M31.23,22.01
		c0.3-0.23,0.57-0.48,0.85-0.72c-1.31,1.99-4.49,3.57-6.99,4.01c-1.26,0.25-4.03,0.58-5.19-0.06c-0.13-0.07-0.26-0.22-0.14-0.33
		c0.19-0.14,0.5-0.11,0.73-0.11c0.49,0.05,1.01-0.01,1.51-0.01c1.23,0.03,2.63-0.18,3.83-0.37C27.84,23.97,29.75,23.18,31.23,22.01
		L31.23,22.01z M7.59,14.78c0.36-0.08,0.76-0.02,1.08,0.12c0.4,0.18,0.63,0.51,0.84,0.82c0.09,0.15,0.2,0.33,0.13,0.5
		c-0.11,0.03-0.23,0.04-0.34,0.07c-0.1,0.09-0.06,0.22-0.06,0.33c0.07,0.58,0.31,1.07,0.57,1.61c0.03,0.08,0.11,0.14,0.18,0.19
		c0.1-0.61-0.06-1.22,0.19-1.81c0.04-0.09,0.09-0.2,0.23-0.22c0.21,0,0.38,0.18,0.59,0.14c0.18-0.08,0.15-0.28,0.14-0.42
		c-0.06-0.36-0.42-0.62-0.66-0.92c0.53,0.33,1.03,0.74,1.25,1.25c0.13,0.3,0.09,0.68-0.22,0.9c-0.14,0.11-0.34,0.08-0.51,0.06
		c-0.38,0.37-0.33,0.86-0.24,1.3c0.03,0.11,0.06,0.3,0.25,0.29c0.4-0.09,0.67-0.36,1.01-0.53c-0.78,0.97-1.44,1.5-1.96,2.68
		c0.01-0.25,0.06-0.5-0.01-0.75C10,20.25,9.85,20.15,9.7,20.08c-0.39-0.19-0.83-0.29-1.23-0.47c-0.41-0.2-0.63-0.56-0.88-0.87
		c-0.16-0.2-0.48-0.09-0.67-0.25c-0.09-0.19-0.04-0.39-0.09-0.59c-0.06-0.3-0.08-0.71-0.41-0.91c-0.34-0.21-0.8-0.2-1.21-0.2v-0.01
		c0.3-0.11,0.64-0.23,0.98-0.18c0.57,0.08,0.98,0.35,1.29,0.72c0.21,0.24,0.17,0.57,0.38,0.81c0.15,0.18,0.38,0.3,0.6,0.42
		c0.24,0.13,0.46,0.29,0.75,0.34c0.07-0.29,0.03-0.61-0.2-0.85c-0.39-0.42-0.52-0.88-0.61-1.38c-0.06-0.33,0-0.67,0.17-0.98
		c0.08-0.16,0.23-0.34,0.1-0.51C8.42,14.91,7.96,14.88,7.59,14.78L7.59,14.78z M22.06,9.21c1.04,0.68,2.41,1.52,3.56,2.09
		c-0.25,0.2-0.55,0.51-0.88,0.5C23.99,11.54,22.4,9.86,22.06,9.21L22.06,9.21z M23.59,6.93l0.02,0c1.54,1.94,3.19,3.44,5.5,4.53
		c0.62,0.31,1.21,0.54,1.97,0.57c0.41,0.03,0.8-0.24,1.21-0.24c0.48-0.01,0.95,0.2,1.29,0.43c0.1,0.07,0.18,0.16,0.2,0.27
		c0.1,0.48,0.24,0.95,0.66,1.32c0.26,0.23,0.68,0.21,1.05,0.15c0.07,0.25,0.21,0.54,0.55,0.62c0.32,0.06,0.58-0.26,0.92-0.17
		c0.14,0.18,0.22,0.36,0.37,0.55c0.13,0.13,0.35,0.16,0.51,0.27c0.6,0.32,0.98,0.92,1.22,1.4c-0.34-0.37-0.73-0.82-1.28-1
		c0.02,0.79-0.03,1.91-0.58,2.33c-0.02-0.51,0-1.01-0.3-1.46c-0.47,0.34-0.94,0.82-1.55,0.93c0.23-0.29,0.7-0.6,0.55-0.96
		c-0.27-0.17-0.61-0.22-0.96-0.13c-0.51,0.11-1,0.42-1.36,0.72c-0.11-0.28-0.18-0.54-0.31-0.79c-0.29,0.05-1.32,0.39-1.03,0.85
		c0.45,0.56,1.17,0.34,1.6,0.42c0.3,0.1,0.51,0.33,0.63,0.56c0.03-0.21,0.04-0.42,0.08-0.63c0.45,0.54,0.86,1.12,1.22,1.71
		c0.52-0.23,0.62-0.47,0.68-1.13c0.2,0.33,0.23,0.62,0.24,0.98c0.15-0.13,0.24-0.23,0.33-0.43c0.19,0.9-0.02,2.26-1.29,2.67
		c0.23-0.6,0.32-1.12-0.49-1.12c-0.64,0-1.35,0.23-1.99,0.31c0.25-0.13,1.33-0.74,1.14-1.1c-0.08-0.14-0.24-0.18-0.4-0.24
		c-0.4-0.14-0.77-0.35-1.21-0.41c-0.21-0.03-0.39,0.12-0.57,0.19c-1.05-0.5-1.43,0.12-2.18,0.23c-0.72,0.11-1.51-0.3-1.89-0.88
		c-0.84-1.31,0.42-2.11,1.49-2.44c-1.41-0.16-1.98,0.32-2.31,1.72c-0.68-0.22-1-0.25-1.84-0.4c-4.68-0.68-8.38,0.7-10.53,2.98
		c-2.07,2.2-3.36,5.61-3.33,8.38c-0.06,3.02,0.86,4.8,2.43,7.44c-2.27-1.86-3.28-4.2-3.95-5.76c-0.29,0.33-0.19,0.74-0.27,1.12
		c-1.31-1.79,0.51-6.29,1.38-8.31c-0.69,0.32-1.1,0.89-1.59,1.35c-0.08-2.55,2.17-5.14,4.48-7.23c-0.71,0.14-1.25,0.37-1.89,0.69
		c2.21-2.33,6.25-3.68,9.9-3.82c-0.86-0.29-1.88-0.35-2.79-0.5c2.85-0.59,4.8-0.61,6.73-1.89c0.9,0.58,1.94,1.17,2.45,1.02
		C26.95,11.5,24.13,8.93,23.59,6.93L23.59,6.93z M32,13c0.15,0.24,0.37,0.44,0.57,0.66c0.22,0.24,0.61,0.44,1.01,0.32
		c-0.06-0.21-0.14-0.43-0.27-0.62c-0.05-0.08-0.17-0.12-0.28-0.14C32.69,13.16,32.35,13.06,32,13L32,13z"/>
	<path class="st3" d="M30.77,19.73c-3,3.47-7.76,3.97-11.06,4.11c-0.37,0.04-1.12,0.08-1.31,0.35c-0.11,0.17-0.01,0.41,0.15,0.54
		c3.72,2.63,8.57,0.71,11.12-0.55c-2.94,2.64-7.91,3.11-12.14,1.56c-0.54-0.18-0.89-0.24-1.06-0.05c-0.12,0.13-0.18,0.38-0.02,0.67
		c1.19,2.22,2.05,3.93,5.07,4.89c-3.51-0.21-5.71-3.54-6.23-5.33c-0.05,2.99,2.55,5.04,3.62,6.23c-1.4,0.05-2.76,0.16-3.36,1.21
		c-0.42,0.66-0.41,1.62-0.99,2.49c-1.62-3.04-2.92-7.28-1.7-10.99c0.92-2.79,2.54-5.42,6.36-7.06c-1.01,1.16-1.78,2.05-2.62,3.33
		c-0.65,1.22,0.15,1.65,1.05,0.09c1.26,3.04,10.3,1.22,12.68-1.68l0.86-0.36L30.77,19.73L30.77,19.73z M25.05,46.06
		c0.09-0.15,0.33-0.24,0.54-0.17c0.39,0.13,0.55,0.56,0.32,0.84c-0.28,0.38-0.74,0.65-1.04,1.02c-0.14,0.16-0.2,0.35-0.28,0.53h0
		C24.5,47.53,24.49,46.71,25.05,46.06L25.05,46.06z M20.83,44.74c0.21-0.17,0.62-0.18,0.81,0.01c0.19,0.24,0.26,0.56,0.14,0.83
		c-0.2,0.25-0.53,0.42-0.81,0.61c-0.45,0.29-0.92,0.62-1.11,1.07c0-0.56,0.09-1.11,0.32-1.64C20.33,45.3,20.52,44.98,20.83,44.74
		L20.83,44.74z M30.88,44.22c0.14-0.07,0.31-0.03,0.43,0.05c0.16,0.1,0.22,0.25,0.25,0.4c0.07,0.36,0.07,0.73,0.21,1.07
		c0.06,0.15,0.15,0.28,0.22,0.42c-0.35-0.12-0.62-0.34-0.85-0.57c-0.25-0.26-0.47-0.54-0.53-0.86
		C30.58,44.54,30.66,44.33,30.88,44.22L30.88,44.22z M17.72,42.21c0.23-0.11,0.53-0.01,0.68,0.15c0.19,0.19,0.11,0.45,0.09,0.67
		c-0.01,0.15-0.15,0.27-0.31,0.35c-0.43,0.2-0.92,0.39-1.35,0.6c-0.29,0.14-0.52,0.34-0.69,0.57c0.05-0.39,0.21-0.76,0.39-1.12
		C16.77,42.96,17.16,42.48,17.72,42.21L17.72,42.21z M35.59,39.24c-0.04-0.19,0.14-0.34,0.33-0.43c0.36-0.01,0.64,0.19,0.94,0.32
		c0.17,0.08,0.37,0.1,0.56,0.12c-0.34,0.22-0.77,0.36-1.21,0.36C35.94,39.61,35.63,39.47,35.59,39.24L35.59,39.24z M15.1,37.64
		c0.12-0.07,0.27-0.02,0.4,0.01c0.31,0.09,0.48,0.35,0.46,0.6c-0.02,0.27,0.02,0.6-0.3,0.77c-0.57,0.33-1.28,0.52-1.8,0.92
		c-0.19,0.13-0.33,0.29-0.45,0.46c0.08-0.75,0.39-1.49,0.89-2.13C14.49,38,14.8,37.81,15.1,37.64L15.1,37.64z M22.52,34.73
		c0.41-0.16,0.87-0.25,1.33-0.28c-0.38,0.13-0.81,0.27-1.02,0.57c-0.09,0.13-0.17,0.31-0.02,0.43c0.17,0.09,0.39,0.06,0.57,0.13
		c0.17,0.11,0.11,0.31,0.09,0.45c-0.12,0.48-0.37,0.93-0.67,1.36c-0.06,0.1-0.13,0.21-0.11,0.32c0.14,0.02,0.23-0.09,0.33-0.14
		c0.4-0.28,0.82-0.55,1.12-0.9c0.13-0.16,0.33-0.31,0.35-0.51c0.03-0.16-0.26-0.21-0.28-0.36c0.12-0.24,0.44-0.39,0.72-0.51
		c0.64-0.25,1.57-0.19,1.97,0.32c-0.32-0.09-0.62-0.24-0.97-0.26c-0.18-0.01-0.38,0.07-0.41,0.21c-0.04,0.19-0.02,0.38-0.06,0.56
		c-0.12,0.66-0.65,1.26-1.36,1.63c-0.24,0.12-0.55,0.18-0.73,0.36c-0.13,0.13-0.24,0.28-0.23,0.45c0.15,0.07,0.34,0.05,0.51,0.07
		c0.38,0.04,0.79,0.06,1.14-0.08c0.33-0.13,0.47-0.45,0.81-0.56c0.89-0.33,2.03,0.07,2.42,0.75c-0.28-0.13-0.51-0.32-0.81-0.43
		c-0.3-0.11-0.68-0.06-0.93,0.12c-0.27,0.19-0.44,0.44-0.6,0.69c-0.06,0.09-0.12,0.19-0.26,0.21c-0.23-0.01-0.45-0.15-0.69-0.09
		c-0.33,0.09-0.63,0.25-0.96,0.33c-0.23,0.05-0.47,0.05-0.7,0c-0.4-0.08-0.81-0.18-1.23-0.2c-0.19,0-0.42,0.02-0.53,0.15
		c-0.16,0.19-0.14,0.42-0.17,0.64c-0.13-0.53-0.33-1.06-0.36-1.6c-0.04-0.67-0.21-1.35-0.07-2.03c0.23,0.27,0.24,0.6,0.3,0.92
		c0.02,0.14,0.11,0.33,0.32,0.35c0.29,0,0.45-0.22,0.6-0.38c0.24-0.33,0.46-0.71,0.41-1.1c0.01-0.18-0.28-0.18-0.38-0.31
		c-0.19-0.21-0.19-0.49-0.1-0.72C21.96,35.04,22.22,34.85,22.52,34.73L22.52,34.73z M37.96,33.85c0.01-0.14,0.21-0.18,0.36-0.17
		c0.28,0,0.55,0.02,0.83-0.01c-0.2,0.22-0.48,0.41-0.82,0.47C38.11,34.18,37.91,34.02,37.96,33.85L37.96,33.85z M38.16,30.42
		c0.21-0.08,0.42-0.16,0.6-0.27c-0.07,0.23-0.22,0.47-0.5,0.59C38.04,30.78,37.97,30.47,38.16,30.42L38.16,30.42z M28.24,26.87
		c0.28,1.05,0.66,2.03,1.89,2.42c1.15,0.36,2.82,0.11,4.08-0.01c1.05-0.04,2.02-0.23,2.8,0.31c0.39,0.27,0.55,0.6,0.74,0.97
		c0.18,0.37,0.36,0.73,0.48,1.11c0.12,0.33,0.05,0.75-0.14,1.05c-0.3,0.47-0.48,0.86-0.54,1.38c-0.05,0.47-0.15,0.94-0.24,1.41
		c-0.09,0.45-0.21,0.99-0.44,1.41c-0.23,0.41-0.64,0.72-0.91,1.11c-0.46,0.64-0.71,1.33-0.95,2.03c-0.19,0.55-0.26,1.11-0.42,1.67
		c-0.12,0.47-0.41,0.93-0.93,1.21c-0.77,0.41-1.73,0.51-2.55,0.83c-0.76,0.3-1.27,0.78-1.87,1.23c-0.47,0.36-0.88,0.77-1.56,0.87
		c-1.26,0.19-1.58-0.81-3.86-0.01c-0.27,0.1-0.62,0.12-0.86-0.04c-0.54-0.26-0.6-1.01-1.21-1.33c-0.61-0.29-1.34-0.3-2.02-0.43
		c-0.3-0.05-0.59-0.23-0.71-0.46c-0.19-0.4-0.2-0.83-0.37-1.23c-0.44-0.9-1.89-1.19-2.3-2.01c-0.42-0.86,0.15-1.31,0.15-2.01
		c-0.04-0.92-0.67-1.39-1.89-1.43c0.68-0.99,0.92-1.78,1.16-2.84c0.16-0.37,0.25-0.79,0.65-1.04c0.35-0.22,0.91-0.34,1.33-0.44
		c0.45-0.11,1.12-0.12,1.55,0.07c1.16,0.64,0.89,2.31,0.28,2.99c-0.83,0.94-2.92,0.75-2.56-0.72c0.43,0.36,0.85,0.92,1.45,0.26
		c0.04-0.06,0.09-0.15,0.07-0.23c-0.09-0.28-0.26-0.46-0.59-0.6c-0.16-0.07-0.36-0.11-0.54-0.05c-0.6,0.18-1,0.55-1.23,1.01
		c-0.47,0.92,0.54,1.66,1.71,1.48c1.09-0.22,1.59-0.66,2.3-1.24c-0.02,1.18-0.06,2.03,0.1,3.27c0.18,0.9,0.36,1.79,0.83,2.63
		c0.38,0.69,1.01,1.33,1.87,1.66c0.91,0.37,1.91,0.37,2.9,0.37c1.7,0.01,4.19-0.73,5.56-1.44c2.19-1.16,2.51-2.09,3.58-3.9
		c0.47-0.85,0.92-1.9,1.25-2.8c0.34-0.93,0.6-1.88,0.59-2.85c-0.01-0.8-0.22-1.28-0.53-1.66c-0.96-1.21-3.01-0.7-4.89-0.75
		c-0.15,0.3-0.26,0.63-0.01,0.92c0.46,0.5,1.59,0.42,2.34,0.48c-3.23,1.32-6.13-0.12-6.93-2.66c0.67,0.84,1.76,2.56,3.41,2.05
		c0.6-0.18,0.33-0.61,0.13-0.93c-0.05-0.11-0.26-0.12-0.38-0.16C28.54,29.39,28,28.09,28.24,26.87L28.24,26.87z M17.87,26.32
		c0.24,0.19,0.32,0.45,0.57,0.64c2.29,1.74,4.31,1.73,7.22,1.83c-2.59,0.63-5.88,0.24-7.72-1.5c-0.26-0.24-0.44-0.46-0.59-0.75
		C17.22,26.14,17.58,26.09,17.87,26.32L17.87,26.32z M28.69,25.84c2.34-0.13,4.73,0.76,5.48,3.03c-0.31-0.34-1.58-0.64-2.06-0.52
		c-0.13,0.03-0.25,0.1-0.27,0.21c-0.05,0.2,0.07,0.36,0.15,0.54c-1.28,0.15-2.21-0.28-2.79-1.1c0.29,0.12,0.57,0.31,0.9,0.37
		c0.63,0.12,1.26-0.15,1.62-0.54c0.23-0.25,0.08-0.56-0.19-0.76C30.56,26.34,29.73,26.26,28.69,25.84L28.69,25.84z M31.08,21.62
		c0.3-0.23,0.56-0.48,0.85-0.72c-1.31,1.99-4.49,3.57-6.99,4.01c-1.26,0.25-4.03,0.58-5.19-0.06c-0.13-0.07-0.26-0.22-0.14-0.33
		c0.19-0.14,0.5-0.11,0.73-0.11c0.49,0.05,1.01-0.01,1.51-0.01c1.23,0.03,2.63-0.18,3.83-0.37C27.69,23.58,29.59,22.79,31.08,21.62
		L31.08,21.62z M7.44,14.39c0.36-0.08,0.76-0.02,1.08,0.12c0.4,0.18,0.63,0.51,0.84,0.82c0.09,0.15,0.2,0.33,0.13,0.5
		c-0.11,0.03-0.23,0.04-0.34,0.07c-0.1,0.09-0.06,0.22-0.06,0.33c0.07,0.58,0.31,1.07,0.57,1.61c0.03,0.08,0.11,0.14,0.18,0.19
		c0.1-0.61-0.06-1.22,0.19-1.81c0.04-0.09,0.09-0.2,0.23-0.22c0.21,0,0.38,0.18,0.59,0.14c0.18-0.08,0.15-0.28,0.14-0.42
		c-0.06-0.37-0.42-0.62-0.66-0.92c0.53,0.33,1.03,0.74,1.25,1.25c0.13,0.3,0.09,0.68-0.22,0.9c-0.14,0.11-0.34,0.08-0.51,0.06
		c-0.38,0.37-0.33,0.86-0.24,1.3c0.03,0.11,0.06,0.3,0.25,0.29c0.4-0.09,0.66-0.36,1-0.53c-0.78,0.97-1.44,1.5-1.96,2.68
		c0.01-0.25,0.06-0.5-0.01-0.75c-0.04-0.14-0.19-0.24-0.34-0.31c-0.39-0.19-0.83-0.29-1.23-0.47c-0.41-0.2-0.63-0.56-0.88-0.87
		c-0.16-0.2-0.48-0.09-0.67-0.25c-0.09-0.19-0.04-0.39-0.09-0.59c-0.06-0.3-0.08-0.71-0.41-0.91c-0.34-0.21-0.8-0.2-1.21-0.2v-0.01
		c0.3-0.11,0.63-0.23,0.98-0.18c0.57,0.08,0.98,0.35,1.29,0.72c0.21,0.24,0.17,0.57,0.38,0.82c0.15,0.18,0.38,0.3,0.6,0.42
		c0.24,0.13,0.46,0.29,0.75,0.34c0.07-0.29,0.03-0.61-0.2-0.85c-0.39-0.42-0.52-0.88-0.61-1.38c-0.06-0.33,0-0.67,0.17-0.98
		c0.08-0.16,0.23-0.34,0.1-0.51C8.26,14.52,7.8,14.49,7.44,14.39L7.44,14.39z M21.9,8.82c1.04,0.68,2.41,1.52,3.56,2.09
		c-0.25,0.2-0.55,0.51-0.88,0.5C23.84,11.15,22.24,9.47,21.9,8.82L21.9,8.82z M23.43,6.53l0.02,0c1.54,1.94,3.19,3.44,5.5,4.53
		c0.62,0.31,1.21,0.54,1.97,0.57c0.41,0.03,0.8-0.24,1.21-0.24c0.48-0.01,0.95,0.2,1.29,0.43c0.1,0.07,0.18,0.16,0.2,0.27
		c0.1,0.48,0.24,0.95,0.66,1.32c0.26,0.23,0.68,0.21,1.05,0.15c0.07,0.25,0.21,0.54,0.55,0.62c0.32,0.06,0.58-0.26,0.92-0.17
		c0.14,0.18,0.22,0.36,0.37,0.55c0.13,0.13,0.35,0.16,0.51,0.27c0.6,0.32,0.98,0.92,1.22,1.4c-0.34-0.37-0.73-0.82-1.28-1
		c0.02,0.79-0.03,1.91-0.58,2.33c-0.02-0.51,0-1.01-0.3-1.46c-0.47,0.34-0.94,0.82-1.55,0.93c0.23-0.29,0.7-0.6,0.55-0.96
		c-0.27-0.17-0.61-0.22-0.96-0.13c-0.51,0.11-1,0.42-1.36,0.72c-0.11-0.28-0.18-0.54-0.31-0.79c-0.29,0.05-1.32,0.39-1.03,0.85
		c0.45,0.56,1.17,0.34,1.6,0.42c0.3,0.1,0.51,0.33,0.63,0.56c0.03-0.21,0.04-0.42,0.08-0.63c0.45,0.55,0.86,1.12,1.22,1.71
		c0.52-0.23,0.62-0.47,0.68-1.13c0.2,0.33,0.23,0.62,0.24,0.98c0.15-0.13,0.24-0.23,0.33-0.43c0.19,0.9-0.02,2.26-1.29,2.67
		c0.23-0.6,0.32-1.12-0.49-1.12c-0.64,0-1.35,0.23-1.99,0.31c0.25-0.13,1.33-0.74,1.14-1.1c-0.08-0.14-0.24-0.18-0.4-0.24
		c-0.4-0.14-0.77-0.35-1.21-0.41c-0.21-0.03-0.39,0.12-0.57,0.19c-1.05-0.5-1.42,0.12-2.18,0.23c-0.72,0.11-1.51-0.3-1.89-0.88
		c-0.84-1.31,0.42-2.11,1.49-2.44c-1.41-0.16-1.98,0.32-2.31,1.72c-0.68-0.22-1-0.25-1.84-0.4c-4.68-0.68-8.38,0.7-10.53,2.98
		c-2.07,2.2-3.36,5.61-3.33,8.38c-0.06,3.02,0.86,4.8,2.43,7.44c-2.27-1.86-3.28-4.2-3.95-5.76c-0.29,0.33-0.19,0.74-0.27,1.12
		c-1.31-1.79,0.51-6.29,1.38-8.31c-0.69,0.32-1.1,0.89-1.59,1.35c-0.08-2.55,2.17-5.14,4.48-7.23c-0.71,0.14-1.25,0.37-1.89,0.7
		c2.21-2.33,6.25-3.68,9.9-3.82c-0.86-0.29-1.88-0.35-2.79-0.5c2.85-0.59,4.8-0.61,6.73-1.89c0.9,0.58,1.94,1.17,2.45,1.02
		C26.8,11.11,23.98,8.54,23.43,6.53L23.43,6.53z M31.85,12.61c0.15,0.24,0.37,0.44,0.57,0.66c0.22,0.24,0.61,0.44,1.01,0.32
		c-0.06-0.21-0.14-0.43-0.27-0.62c-0.05-0.08-0.17-0.12-0.28-0.14C32.54,12.77,32.2,12.67,31.85,12.61L31.85,12.61z"/>
	<path class="st0" d="M1.5,10.79c7.2-4.5,15.45-8.07,22.78-9.28v0l0,0l0,0v0c7.33,1.2,15.58,4.78,22.78,9.28c0,0.17,0,0.33,0,0.5
		c-7.12-4.48-15.23-8.05-22.45-9.31v0l0,0l0,0v0C17.27,3.11,9.02,6.59,1.83,11.01c-0.09,17.04,4.54,30.61,12.11,38.8
		C6.18,41.74,1.4,28.08,1.5,10.79L1.5,10.79z"/>
</g>
</svg>
